# xmcd CD database file
#
# Track frame offsets:
#	150
#	23931
#	50632
#	77245
#	99826
#	139524
#	163487
#	185727
#	217536
#
# Disc length: 3479 seconds
#
# Revision: 2
# Processed by: cddbd v1.5.2PL0 Copyright (c) Steve Scherf et al.
# Submitted via: CDex 1.77
#
DISCID=750d9509
DTITLE=Endemic Ensemble - Tangled
DYEAR=2016
DGENRE=Jazz
TTITLE0=Endemic Ensemble - Sugar Ant
TTITLE1=Endemic Ensemble - Tangled
TTITLE2=Endemic Ensemble - The Snort
TTITLE3=Endemic Ensemble - Change of Scenery
TTITLE4=Endemic Ensemble - The Tolovana Stomp
TTITLE5=Endemic Ensemble - Maui Chimes
TTITLE6=Endemic Ensemble - Goodbye, Old Friend
TTITLE7=Endemic Ensemble - Nassau Place
TTITLE8=Endemic Ensemble - Retro
EXTD=YEAR: 2016
EXTT0=
EXTT1=
EXTT2=
EXTT3=
EXTT4=
EXTT5=
EXTT6=
EXTT7=
EXTT8=
PLAYORDER=
